<svg height="512pt" viewBox="0 0 512 512" width="512pt" xmlns="http://www.w3.org/2000/svg"><path d="m512 256c0 51.535156-15.234375 99.527344-41.441406 139.691406-45.683594 70.03125-124.71875 116.308594-214.558594 116.308594-3.101562 0-6.195312-.050781-9.277344-.167969-85.996094-3.0625-161.1875-48.535156-205.28125-116.140625-26.207031-40.175781-41.441406-88.148437-41.441406-139.691406 0-14.964844 1.285156-29.621094 3.75-43.875 14.210938-82.296875 67.710938-151.125 140.476562-186.492188 33.773438-16.425781 71.691407-25.632812 111.773438-25.632812 62.222656 0 119.265625 22.195312 163.621094 59.097656 30.394531 25.289063 54.847656 57.480469 70.9375 94.167969 12.695312 28.953125 20.1875 60.707031 21.296875 94.082031.09375 2.875.144531 5.757813.144531 8.652344zm0 0" fill="#0084a6"/><path d="m281.410156 75.714844v35.042968l-277.660156 101.367188c14.210938-82.296875 67.710938-151.125 140.476562-186.492188zm0 0" fill="#69b8d4"/><path d="m490.558594 153.265625-116.433594-42.507813v-35.042968l45.496094-16.617188c30.394531 25.289063 54.847656 57.480469 70.9375 94.167969zm0 0" fill="#69b8d4"/><path d="m382.011719 80.707031v35.738281h-100.878907v-35.738281c0-4.285156.597657-8.425781 1.699219-12.363281 5.382813-19.136719 22.964844-33.15625 43.824219-33.15625h9.824219c3.117187 0 6.164062.316406 9.109375.910156 20.78125 4.222656 36.421875 22.585938 36.421875 44.609375zm0 0" fill="#d81d1d"/><path d="m382.011719 80.707031v35.738281h-72.859375v-35.738281c0-4.285156.59375-8.425781 1.699218-12.363281 4.578126-16.285156 17.988282-28.863281 34.738282-32.246094 20.78125 4.222656 36.421875 22.585938 36.421875 44.609375zm0 0" fill="#f73e3e"/><path d="m299.375 76.703125v19.242187c0 4.617188-3.742188 8.359376-8.355469 8.359376h-9.882812v-23.597657c0-4.285156.59375-8.425781 1.699219-12.363281h8.183593c4.617188 0 8.355469 3.742188 8.355469 8.359375zm0 0" fill="#ffbb16"/><path d="m363.769531 76.703125v19.242187c0 4.617188 3.742188 8.359376 8.355469 8.359376h9.886719v-23.597657c0-4.285156-.597657-8.425781-1.699219-12.363281h-8.1875c-4.613281 0-8.355469 3.742188-8.355469 8.359375zm0 0" fill="#ffbb16"/><path d="m314.804688 104.304688h33.539062c4.421875 0 8.007812-3.585938 8.007812-8.011719v-19.9375c0-4.425781-3.585937-8.011719-8.007812-8.011719h-33.539062c-4.425782 0-8.011719 3.585938-8.011719 8.011719v19.9375c0 4.425781 3.585937 8.011719 8.011719 8.011719zm0 0" fill="#ffbb16"/><path d="m396.152344 289.480469h-129.160156l.292968-2.503907 4.4375-37.535156 5.40625-45.738281 4.4375-37.527344 2.484375-21 1.988281-16.816406h91.070313l1.984375 16.816406 1.796875 15.207031 4.898437 41.4375 4.019532 34zm0 0" fill="#e6e6e6"/><path d="m312.25 128.359375-1.902344 37.816406-1.882812 37.527344-2.292969 45.738281-1.886719 37.535156-.121094 2.503907h-37.171874l.292968-2.503907 4.4375-37.535156 5.40625-45.738281 4.4375-37.527344 4.472656-37.816406zm0 0" fill="#ccc"/><path d="m389.808594 235.820312-122.523438 51.15625 4.4375-37.535156 114.066406-47.621094zm0 0" fill="#f73e3e"/><path d="m380.890625 160.382812-103.761719 43.320313 4.4375-37.527344 90.558594-37.816406h4.984375zm0 0" fill="#f73e3e"/><path d="m306.910156 234.753906-.738281 14.6875-1.089844 21.761719-37.796875 15.773437 4.4375-37.535156zm0 0" fill="#d81d1d"/><path d="m310.96875 153.898438-.617188 12.277343-1.214843 24.167969-32.007813 13.359375 4.4375-37.527344zm0 0" fill="#d81d1d"/><path d="m392.871094 107.335938v15.417968c0 5.804688-4.703125 10.507813-10.507813 10.507813h-101.578125c-5.808594 0-10.507812-4.703125-10.507812-10.507813v-15.417968c0-5.796876 4.699218-10.5 10.507812-10.5h101.578125c5.804688 0 10.507813 4.703124 10.507813 10.5zm0 0" fill="#ccc"/><path d="m379.09375 145.175781h-95.042969l1.988281-16.816406h91.070313zm0 0" fill="#ccc"/><path d="m379.09375 145.175781-1.984375-16.816406h-4.984375l-40.265625 16.816406zm0 0" fill="#d81d1d"/><path d="m392.871094 107.335938v15.417968c0 5.804688-4.703125 10.507813-10.507813 10.507813h-68.660156c-5.796875 0-10.5-4.703125-10.5-10.507813v-15.417968c0-5.796876 4.703125-10.5 10.5-10.5h68.660156c5.804688 0 10.507813 4.703124 10.507813 10.5zm0 0" fill="#e6e6e6"/><path d="m512 256c0 21.253906-2.589844 41.902344-7.480469 61.648438-3.082031 12.476562-7.074219 24.585937-11.921875 36.269531-10.136718 24.472656-23.949218 47.03125-40.773437 66.976562-46.957031 55.714844-117.257813 91.105469-195.824219 91.105469-3.101562 0-6.195312-.050781-9.277344-.167969l7.269532-53.84375-11.429688-26.339843-12.058594-27.785157 20.785156-56.9375c1.722657-4.710937 1.378907-9.945312-.960937-14.398437l-8.058594-15.347656c-1.398437-2.65625-2.046875-5.488282-2.046875-8.265626v-.042968c.019532-7.355469 4.605469-14.324219 12.140625-16.863282l14.921875-5.027343h62.890625c2.949219 0 5.851563-.730469 8.453125-2.128907l30.03125-16.1875c4.378906-2.363281 9.539063-2.78125 14.242188-1.171874l55.902344 19.164062c5.183593 1.789062 10.898437 1.078125 15.496093-1.910156l15.765625-10.242188 41.789063-27.15625c.09375 2.875.144531 5.757813.144531 8.652344zm0 0" fill="#757177"/><path d="m512 256c0 21.253906-2.589844 41.902344-7.480469 61.648438-3.082031 12.476562-7.074219 24.585937-11.921875 36.269531-10.136718 24.472656-23.949218 47.03125-40.773437 66.976562l-209.261719 10.753907-12.058594-27.785157 20.785156-56.9375c1.722657-4.710937 1.378907-9.945312-.960937-14.398437l-8.058594-15.347656c-1.398437-2.65625-2.046875-5.488282-2.046875-8.265626v-.042968l16.363282 18.640625c3.082031 3.511719 8.085937 4.484375 12.359374 2.582031 4.441407-1.964844 9.5625-2.195312 14.285157-.417969l46.089843 17.28125c4.734376 1.777344 9.980469 1.578125 14.566407-.542969l51.335937-23.8125c7.1875-3.332031 15.683594-1.828124 21.285156 3.773438l16.632813 16.644531.074219.074219c3.5625 3.539062 9.414062 3.238281 12.589844-.671875l22.332031-27.480469c7.167969-8.816406 9.152343-20.769531 5.234375-31.441406l-3.304688-8.996094 41.789063-27.15625c.09375 2.875.144531 5.757813.144531 8.652344zm0 0" fill="#2f373b"/><path d="m470.558594 395.691406c-17.335938 26.5625-39.453125 49.71875-65.160156 68.210938-6.351563 4.578125-12.925782 8.871094-19.695313 12.851562-3.457031 2.039063-6.980469 4.003906-10.542969 5.875-21.160156 11.160156-44.085937 19.433594-68.230468 24.292969-16.457032 3.332031-33.492188 5.078125-50.929688 5.078125-3.101562 0-6.195312-.050781-9.277344-.167969-72.664062-2.589843-137.613281-35.453125-182.609375-86.371093-2.183593-2.464844-4.324219-4.984376-6.402343-7.542969-5.8125-7.105469-11.246094-14.523438-16.269532-22.226563zm0 0" fill="#69b8d4"/><g fill="#ffbb16"><path d="m187.371094 86.304688 16.816406-5.777344c5.046875-1.734375 5.046875-8.875 0-10.613282l-16.816406-5.777343c-1.636719-.5625-2.921875-1.847657-3.484375-3.484375l-5.777344-16.8125c-1.734375-5.050782-8.875-5.050782-10.613281 0l-5.777344 16.8125c-.5625 1.636718-1.847656 2.921875-3.484375 3.484375l-16.8125 5.777343c-5.050781 1.738282-5.050781 8.878907 0 10.613282l16.8125 5.777344c1.636719.5625 2.921875 1.847656 3.484375 3.484374l5.777344 16.816407c1.738281 5.046875 8.878906 5.046875 10.613281 0l5.777344-16.816407c.5625-1.636718 1.847656-2.921874 3.484375-3.484374zm0 0"/><path d="m82.882812 262.152344 16.8125-5.78125c5.050782-1.734375 5.050782-8.875 0-10.609375l-16.8125-5.78125c-1.636718-.5625-2.921874-1.847657-3.484374-3.480469l-5.777344-16.816406c-1.734375-5.050782-8.878906-5.050782-10.613282 0l-5.777343 16.816406c-.5625 1.632812-1.847657 2.917969-3.484375 3.480469l-16.8125 5.78125c-5.050782 1.734375-5.050782 8.875 0 10.609375l16.8125 5.78125c1.636718.5625 2.921875 1.847656 3.484375 3.480468l5.777343 16.816407c1.734376 5.050781 8.878907 5.050781 10.613282 0l5.777344-16.816407c.5625-1.632812 1.847656-2.917968 3.484374-3.480468zm0 0"/><path d="m205.515625 304.796875 16.816406-5.777344c5.046875-1.734375 5.046875-8.878906 0-10.613281l-16.816406-5.777344c-1.636719-.5625-2.921875-1.847656-3.484375-3.484375l-5.777344-16.8125c-1.734375-5.050781-8.875-5.050781-10.613281 0l-5.777344 16.8125c-.5625 1.636719-1.847656 2.921875-3.480469 3.484375l-16.816406 5.777344c-5.050781 1.734375-5.050781 8.878906 0 10.613281l16.816406 5.777344c1.632813.5625 2.917969 1.847656 3.480469 3.484375l5.777344 16.8125c1.738281 5.050781 8.878906 5.050781 10.613281 0l5.777344-16.8125c.5625-1.636719 1.847656-2.921875 3.484375-3.484375zm0 0"/><path d="m367.878906 458.5c0 5.601562 21.699219 4.078125 37.519532 5.402344-6.351563 4.578125-12.925782 8.871094-19.695313 12.851562-6.25.285156-10.785156 1.339844-10.785156 4.640625 0 .449219.085937.867188.242187 1.234375-21.160156 11.160156-44.085937 19.433594-68.230468 24.292969-7.230469-.019531-13.910157-.355469-13.910157-4.398437 0-8.820313 25.550781 0 23.78125-15.496094-1.773437-15.496094-41.386719 5.820312-41.386719-9.152344 0-14.964844 59.871094-1.757812 59.871094-16.730469 0-14.972656-39.890625 0-39.890625-10.835937 0-10.835938 16.121094-16.121094 60.519531-16.121094 0 0 53.351563-3.867188 53.351563 9.351562 0 13.207032-41.386719 6.164063-41.386719 14.960938zm0 0"/><path d="m233.570312 437.558594c0 5.265625-19.203124 4.308594-42.890624 4.308594-23.691407 0-42.894532.957031-42.894532-4.308594 0-5.261719 19.203125-9.53125 42.894532-9.53125 23.6875 0 42.890624 4.269531 42.890624 9.53125zm0 0"/><path d="m217.820312 456.917969c0 3.332031-12.152343 2.726562-27.140624 2.726562-14.992188 0-27.144532.605469-27.144532-2.726562 0-3.328125 12.152344-6.03125 27.144532-6.03125 14.988281 0 27.140624 2.703125 27.140624 6.03125zm0 0"/><path d="m101.398438 422.691406c0 3.335938-12.152344 2.726563-27.148438 2.726563-3.582031 0-7.011719.03125-10.136719.042969-2.183593-2.464844-4.324219-4.984376-6.402343-7.542969 4.574218-.785157 10.3125-1.253907 16.539062-1.253907 14.996094 0 27.148438 2.695313 27.148438 6.027344zm0 0"/></g><path d="m349.054688 307.507812 23.53125-16.125c1.675781-1.148437 3.980468-.433593 4.714843 1.460938l5.226563 13.507812c.753906 1.949219-.566406 4.082032-2.648438 4.269532l-28.761718 2.613281c-3.226563.296875-4.738282-3.894531-2.0625-5.726563zm0 0" fill="#2f373b"/><path d="m437.90625 289.242188-20.960938 4.542968c-3.855468.832032-4.902343 5.839844-1.703124 8.152344l16.042968 11.601562c2.535156 1.832032 6.125.625 7.035156-2.367187l4.914063-16.144531c1.011719-3.332032-1.925781-6.523438-5.328125-5.785156zm0 0" fill="#2f373b"/></svg>